<svg xmlns="http://www.w3.org/2000/svg" width="92" height="96" viewBox="0 0 92 96" fill="none">
  <g clip-path="url(#clip0_4834_60)">
    <path d="M65.4493 16.8C76.3375 16.8 85.1636 25.6648 85.1636 36.6V43.2L90.9028 54.6647C91.4694 55.7967 91.4668 57.13 90.8958 58.2598L85.1636 69.6V76.2C85.1636 87.1355 76.3375 96 65.4493 96H26.0207C15.1328 96 6.30641 87.1355 6.30641 76.2V69.6L0.448508 58.2955C-0.146935 57.1464 -0.149634 55.7802 0.441263 54.6288L6.30641 43.2V36.6C6.30641 25.6648 15.1328 16.8 26.0207 16.8H65.4493ZM62.9302 22.5H29.1895C19.8723 22.5 12.3192 30.0552 12.3192 39.375V45L7.44289 54.4635C6.84794 55.6181 6.85066 56.9897 7.45017 58.1419L12.3192 67.5V73.125C12.3192 82.4451 19.8723 90 29.1895 90H62.9302C72.2477 90 79.8005 82.4451 79.8005 73.125V67.5L84.5682 58.1061C85.1432 56.9732 85.1458 55.6346 84.5753 54.4994L79.8005 45V39.375C79.8005 30.0552 72.2477 22.5 62.9302 22.5Z" fill="#5742EE"/>
    <path d="M45.7344 22.5C51.8095 22.5 56.7344 17.5751 56.7344 11.5C56.7344 5.42487 51.8095 0.5 45.7344 0.5C39.6592 0.5 34.7344 5.42487 34.7344 11.5C34.7344 17.5751 39.6592 22.5 45.7344 22.5Z" fill="#5742EE"/>
    <path d="M36 47.5C36 46.1193 34.8807 45 33.5 45C32.1193 45 31 46.1193 31 47.5V64.5C31 65.8807 32.1193 67 33.5 67C34.8807 67 36 65.8807 36 64.5V47.5Z" fill="#5742EE" stroke="#5742EE" stroke-width="8"/>
    <path d="M60 47.5C60 46.1193 58.8807 45 57.5 45C56.1193 45 55 46.1193 55 47.5V64.5C55 65.8807 56.1193 67 57.5 67C58.8807 67 60 65.8807 60 64.5V47.5Z" fill="#5742EE" stroke="#5742EE" stroke-width="8"/>
  </g>
  <defs>
    <clipPath id="clip0_4834_60">
      <rect width="92" height="96" fill="white"/>
    </clipPath>
  </defs>
</svg>
